<svg xmlns="http://www.w3.org/2000/svg" viewBox="0 0 1431.18 689.63"><defs><style>.cls-1,.cls-2{fill:#fff;}.cls-2{stroke:#000;}.cls-2,.cls-4{stroke-miterlimit:10;}.cls-3{fill:red;}.cls-4{fill:none;stroke:red;}</style></defs><g id="Layer_1" data-name="Layer 1"><path class="cls-1" d="M104,670.59s576,4.5,226.5-270c-180-141.34-155-207-148.51-235.56C202.14,76.63,343.75,29.72,383,64.59a38.07,38.07,0,0,1,10.5,16.5" transform="translate(87.27 14.66)"/><path d="M104,670.09c75.8-1.22,346-17.06,333-126.76-1.38-11-5.4-21.66-10.71-31.73-10.85-20.4-26.32-38.27-42.63-54.69-24.71-25.08-53.93-46.54-81.54-68.46-48.37-39.65-107.44-92.69-129.5-152.51a114.77,114.77,0,0,1-3.8-68c.63-2.48,1.34-6.27,2.05-9C188.11,91.3,266.61,45.53,332.7,39.43c17.37-1.29,35.88-.15,51.7,8.82,7.13,4,13.85,10.32,16.49,18.17a23,23,0,0,1,1.21,11.76L384.86,84a110.55,110.55,0,0,1-10.5-8.09,24.18,24.18,0,0,0-4.22-3.18c-10.36-5.76-23.3-6.13-35.28-5.37-43.33,4-87.25,24.86-116.78,56.69-11.78,13.09-20.66,28.07-24.58,45.15-1.05,4-2.18,8.56-3,12.44-9.15,44.19,20.21,87.09,47.06,119.74,24.44,29.07,52.85,55.37,82,79.93,34.9,28.44,70.36,57.44,97.83,93.56C518.25,609,351.7,650.44,246.93,663.17A1098.19,1098.19,0,0,1,104,671.09v-1Z" transform="translate(87.27 14.66)"/><circle class="cls-2" cx="441.75" cy="67.25" r="9"/><path class="cls-3" d="M1166.22,666.16c11.42-27.95,21.51-56.42,30.48-85.24s16.8-58,23.79-87.33,13.15-59.06,18.71-88.8,10.55-59.72,15.22-89.68,9-59.94,13.31-90l1.62-11.28c.27-1.89-2.61-2.71-2.89-.8l-15,100.8-15,100.79c-4.92,33.21-10.25,66.41-13.76,99.81-1.76,16.73-3,33.51-3.44,50.32-.36,14.52-.29,29.34,3.41,43.48,3.28,12.56,9.59,24.17,20.06,32.1,9.13,6.92,21.07,11,32.52,8.66a32.5,32.5,0,0,0,8-2.78c1.73-.86.21-3.45-1.52-2.59-10.84,5.36-23.47,3-33.46-3.15-11.22-6.89-18.25-18-22-30.48-4-13.62-4.33-28-4.07-42.11.3-16.37,1.42-32.72,3-49,3.25-32.7,8.43-65.17,13.25-97.66l14.49-97.68,14.49-97.67,1.79-12-2.89-.8c-4.3,30-8.61,60-13.19,89.94s-9.47,59.91-14.89,89.74-11.39,59.46-18.19,88.95-14.38,58.64-23.06,87.55-18.46,57.47-29.55,85.54q-2.1,5.3-4.25,10.56c-.73,1.79,2.17,2.57,2.89.8Z" transform="translate(87.27 14.66)"/><path class="cls-3" d="M1160.39,432.9a57.87,57.87,0,0,1,69.29-15.82c6.89,3.31,13.47,7.52,21,9.38a36.37,36.37,0,0,0,21.36-1.54c14.49-5.38,26.13-16.83,36.8-27.62a310.52,310.52,0,0,0,31.33-37.07c1.19-1.65,2.36-3.32,3.52-5s-1.5-3.1-2.59-1.52a307.48,307.48,0,0,1-30.75,37.73c-5.48,5.73-11.16,11.34-17.15,16.55a81,81,0,0,1-18.72,12.67c-6.62,3.07-14.09,4.66-21.34,3.26-7.55-1.46-14.14-5.62-20.94-9a59.9,59.9,0,0,0-18.81-5.88,61.89,61.89,0,0,0-52,18.08q-1.64,1.74-3.12,3.62c-1.19,1.5.92,3.63,2.12,2.12Z" transform="translate(87.27 14.66)"/></g><g id="Layer_2" data-name="Layer 2"><polyline class="cls-4" points="0 0.5 0 0.5 0 0.5"/><path class="cls-1" d="M516.48,666.09s162-319.5,135-409.5-36-45-36-45-18,96-4.5,162,77.33,336,91.92,292.5,158.58-382.5,125.58-426" transform="translate(87.27 14.66)"/><path class="cls-3" d="M516,665.86c39.67-81,76.27-163.85,105.59-249.22,13.88-42.54,27.85-86.05,29.88-130.92.19-9.2-.25-18.32-2.7-27.08-1.53-5.33-3.36-10.72-5.14-16-2.44-7-5-14-8.07-20.76-2.93-6.08-5.8-12.94-11-17.22a2.82,2.82,0,0,0-1.13-.53.43.43,0,0,0-.33.07,3.44,3.44,0,0,0-.84.8,10.43,10.43,0,0,0-1,1.7,23.7,23.7,0,0,0-1.86,5.61c-.12.69-.53,3.31-.66,4.07-1.14,7.38-2.1,14.8-3,22.23-4.73,44.13-7.64,89.52.34,133.34,15.4,73.47,33.07,146.66,53.71,218.86,6.41,21.42,12.75,43,21.77,63.44,2.2,4.46,4.1,9.14,7.6,12.35.07.06.08,0,.12.08s0,0-.1,0a1.51,1.51,0,0,0-.87.06c-.14,0-.3.14-.35.14s-.07.07-.1.08a1.74,1.74,0,0,0,.23-.31,35,35,0,0,0,1.73-4.41c3.39-9.62,10.6-27.17,14.41-37,38.63-97.66,78.94-195.82,106.77-297.15,5.5-21.76,11-43.84,11.55-66.36-.06-7.26-.32-15.24-4.53-21.39l.8-.6c4.58,6.35,5,14.47,5.26,22a163.11,163.11,0,0,1-1.55,22.64c-6.51,44.84-20.22,88.26-33.8,131.34-27.23,84.68-61.18,168.45-92.07,251.87-1.33,4.32-5.14,9.23-10.94,6.6-2.75-1.4-4.47-3.6-6.08-5.89a78.37,78.37,0,0,1-5.78-10.48c-9.46-20.85-16.08-42.68-22.81-64.42-21.47-72.38-39.49-145.58-55.48-219.34a270.55,270.55,0,0,1-4.24-34.32c-2-34.11.88-68.53,5.68-102.28,1.1-7.5,2.28-15,3.66-22.45.92-5.28,2.11-10.66,5.63-15,5.75-6.77,13.17-2.78,17.3,3.36,7.73,11.26,11.82,24.46,16.18,37.16,2.25,7.3,4.87,14.62,6.2,22.16,9.34,63.37-38.57,178.67-63.28,239.51q-35.1,83.29-75.83,164.05l-.9-.46Z" transform="translate(87.27 14.66)"/></g><g id="Layer_3" data-name="Layer 3"><path class="cls-1" d="M833.38,665.54s196.1-81.95,223.1-185.45c14.84-56.9,3-132,3-132s-7.5-99-61.5-30S938.22,659,980.85,665.54c31.29,4.81,77.58-6.84,101.79-25.24,8.77-6.67,14.64-14.23,15.84-22.21" transform="translate(87.27 14.66)"/><path class="cls-3" d="M833.19,665.08c70.95-32.82,171.49-90.1,209.72-159.92,16.52-30.29,17.65-69.37,17.11-103.32a453.12,453.12,0,0,0-4.51-53.24,146.62,146.62,0,0,0-2.9-18.32c-2-8.77-4.61-17.51-9.59-24.87-9.9-14.89-23.47-4.53-33,5.25a114.67,114.67,0,0,0-11.55,14.06c-6.8,10.11-11.69,21.58-15.78,33.11-8.21,23.55-13.3,48.22-17.16,72.88a743.14,743.14,0,0,0-7.81,150.2c1.45,20.75,4.43,64.66,18.89,79.21a9.64,9.64,0,0,0,4.72,2.49l2.26.33a109.78,109.78,0,0,0,18.43.85c28.16-1.13,65.64-10.54,86.67-30.1,4.41-4.27,8.16-9.54,9.28-15.68l1,.15a25.83,25.83,0,0,1-3.12,9.14c-18,29.94-79.87,45.49-113,41.48-32.13-.38-34.1-101.16-34.3-125.48a731.91,731.91,0,0,1,8.22-113.95c5.11-31.47,11.72-63.12,25-92.35a112.36,112.36,0,0,1,22.09-32.29c13.19-14,32.22-23.95,46-4,9,13.57,12.1,32.26,13.58,46.83a459.8,459.8,0,0,1,4.22,54.17c.18,31.59-1.21,64.42-13,94.17A157.37,157.37,0,0,1,1033.4,531C993.59,580.51,938,614.16,882.46,643.3c-16,8.18-32.28,15.82-48.89,22.7l-.38-.92Z" transform="translate(87.27 14.66)"/></g></svg>